<svg xmlns="http://www.w3.org/2000/svg" width="1200" height="630" viewBox="0 0 1200 630">
  <defs>
    <linearGradient id="bar" x1="0%" y1="0%" x2="100%" y2="0%">
      <stop offset="0%" stop-color="#e8d0f0"/>
      <stop offset="40%" stop-color="#f78da7"/>
      <stop offset="100%" stop-color="#ff6900"/>
    </linearGradient>
    <linearGradient id="mark" x1="0%" y1="0%" x2="100%" y2="100%">
      <stop offset="0%" stop-color="#f0b4d0"/>
      <stop offset="55%" stop-color="#ff8f5c"/>
      <stop offset="100%" stop-color="#ff6900"/>
    </linearGradient>
  </defs>
  <rect width="1200" height="630" fill="#080808"/>
  <rect width="1200" height="6" fill="url(#bar)"/>
  <rect x="0" y="6" width="1200" height="624" fill="none" stroke="rgba(255,255,255,0.04)" stroke-width="1"/>
  <g opacity="0.35" stroke="rgba(255,255,255,0.06)" stroke-width="1">
    <path d="M0 120H1200M0 240H1200M0 360H1200M0 480H1200"/>
    <path d="M120 0V630M240 0V630M360 0V630M480 0V630M600 0V630M720 0V630M840 0V630M960 0V630M1080 0V630"/>
  </g>
  <rect x="80" y="100" width="72" height="72" rx="12" fill="url(#mark)"/>
  <text x="172" y="148" fill="#f0f0f0" font-family="system-ui,sans-serif" font-size="72" font-weight="800">SIGNAL</text>
  <text x="80" y="220" fill="#d4d4d4" font-family="system-ui,sans-serif" font-size="36" font-weight="500">AI Operational Intelligence</text>
  <text x="80" y="290" fill="#b0b0b0" font-family="system-ui,sans-serif" font-size="28">Segnale ’ causa ’ azione ’ automazione</text>
  <rect x="80" y="340" width="340" height="52" rx="26" fill="#f0f0f0"/>
  <text x="250" y="375" fill="#080808" font-family="system-ui,sans-serif" font-size="22" font-weight="700" text-anchor="middle">Demo portfolio interattiva</text>
  <text x="80" y="460" fill="#949494" font-family="system-ui,sans-serif" font-size="22">Analizza · Interpreta · Attiva</text>
</svg>
